# xmcd CD database file
#
# Track frame offsets:
#	150
#	14548
#	28265
#	41446
#	53014
#	66891
#	81925
#	94414
#	105686
#	120248
#	135654
#	150455
#	162829
#	176030
#	188715
#	202558
#	215761
#	228946
#
# Disc length: 3203 seconds
#
# Revision: 2
# Processed by: cddbd v1.5.2PL0 Copyright (c) Steve Scherf et al.
# Submitted via: CDex 1.51
#
DISCID=ea0c8112
DTITLE=Peetie Wheatstraw - The Essential_CD1
DYEAR=2002
DGENRE=Blues
TTITLE0=Crapshooters Blues
TTITLE1=Tennessee Peaches Blues
TTITLE2=The Break I'm Getting (with Pretty Boy Walker)
TTITLE3=Shack Bully Stomp
TTITLE4=Police Station Blues
TTITLE5=The Last Dime
TTITLE6=Whiskey Head Blues
TTITLE7=Peetie Wheatstraw Stomp
TTITLE8=All Night Long Blues
TTITLE9=Devil's Son-In-Law
TTITLE10=Pete Wheatstraw
TTITLE11=Little House (I'm Gonna Chase These Peppers)
TTITLE12=Poor Millionaire Blues
TTITLE13=Slave Man Blues
TTITLE14=Working On The Project
TTITLE15=Sinking Sun Blues
TTITLE16=Coon Can Shorty
TTITLE17=Beer Tavern
EXTD=YEAR: 2002
EXTT0=
EXTT1=
EXTT2=
EXTT3=
EXTT4=
EXTT5=
EXTT6=
EXTT7=
EXTT8=
EXTT9=
EXTT10=
EXTT11=
EXTT12=
EXTT13=
EXTT14=
EXTT15=
EXTT16=
EXTT17=
PLAYORDER=
